<svg width="18" height="24" viewBox="0 0 18 24" fill="none" xmlns="http://www.w3.org/2000/svg">
<path d="M9.00299 23.274C8.91998 23.274 8.83599 23.26 8.75498 23.232C8.45498 23.127 8.25299 22.842 8.25299 22.524V18.384C6.17299 18.212 4.23998 17.318 2.74698 15.824C-0.703015 12.374 -0.703015 6.76204 2.74698 3.31404C6.19699 -0.133955 11.809 -0.135955 15.259 3.31404C18.355 6.41105 18.709 11.384 16.079 14.879L9.58898 22.991C9.44298 23.173 9.22598 23.273 9.00198 23.273L9.00299 23.274ZM9.00299 2.22405C7.12099 2.22405 5.23998 2.94105 3.80798 4.37405C0.943985 7.23705 0.943985 11.898 3.80798 14.764C5.19598 16.151 7.04099 16.914 9.00299 16.914C9.41698 16.914 9.75299 17.251 9.75299 17.664V20.384L14.895 13.959C17.065 11.074 16.771 6.94505 14.199 4.37205C12.765 2.94205 10.883 2.22405 9.00198 2.22405H9.00299Z" fill="#171725"/>
<path d="M12.55 8.70007H5.44998C5.03698 8.70007 4.69998 8.36307 4.69998 7.95007C4.69998 7.53707 5.03698 7.20007 5.44998 7.20007H12.55C12.963 7.20007 13.3 7.53507 13.3 7.95007C13.3 8.36507 12.963 8.70007 12.55 8.70007ZM9.49998 11.9381H5.44998C5.03698 11.9381 4.69998 11.6021 4.69998 11.1881C4.69998 10.7741 5.03698 10.4381 5.44998 10.4381H9.49998C9.91398 10.4381 10.25 10.7741 10.25 11.1881C10.25 11.6021 9.91398 11.9381 9.49998 11.9381Z" fill="#171725"/>
</svg>
