<svg width="18" height="24" viewBox="0 0 18 24" fill="none" xmlns="http://www.w3.org/2000/svg">
<path d="M15.265 3.31394C11.815 -0.13606 6.19497 -0.13606 2.74497 3.31394C-0.705029 6.75394 -0.705029 12.3739 2.74497 15.8239C4.24497 17.3139 6.17497 18.2039 8.25497 18.3839V22.5239C8.25497 22.8339 8.45497 23.1239 8.75497 23.2239C8.83497 23.2539 8.92497 23.2739 9.00497 23.2739C9.22497 23.2739 9.44497 23.1739 9.59497 22.9839L16.085 14.8739C18.715 11.3839 18.355 6.40394 15.265 3.31394ZM4.70497 11.1839C4.70497 10.7739 5.03497 10.4339 5.45497 10.4339H9.50497C9.91497 10.4339 10.255 10.7739 10.255 11.1839C10.255 11.5939 9.91497 11.9339 9.50497 11.9339H5.45497C5.03497 11.9339 4.70497 11.5939 4.70497 11.1839ZM13.305 7.94394C13.305 8.36394 12.965 8.69394 12.555 8.69394H5.45497C5.03497 8.69394 4.70497 8.36394 4.70497 7.94394C4.70497 7.53394 5.03497 7.19394 5.45497 7.19394H12.555C12.965 7.19394 13.305 7.53394 13.305 7.94394Z" fill="#FF6600"/>
</svg>
